<svg width="16" height="16" viewBox="0 0 16 16" fill="none" xmlns="http://www.w3.org/2000/svg">
<path fill-rule="evenodd" clip-rule="evenodd" d="M13.9999 16.015H1.99997C0.895376 16.015 0 15.1197 0 14.0152V2.01502C0 0.909952 0.895376 0.014688 1.99997 0.014688H13.9999C15.1046 0.014688 16 0.909952 16 2.01502V14.0152C16 15.1197 15.1046 16.015 13.9999 16.015ZM7.99998 4.91478C6.75269 4.91478 5.6805 5.65328 5.18851 6.71485H5.18578C5.18062 6.72618 5.17707 6.7381 5.17203 6.74941C5.14262 6.81438 5.11664 6.88234 5.0917 6.95029C5.07979 6.98246 5.06698 7.01406 5.05611 7.04744C5.03322 7.11717 5.01445 7.18811 4.99659 7.25963C4.98813 7.29301 4.97818 7.32579 4.97074 7.35976C4.95448 7.43546 4.94315 7.51235 4.93251 7.58984C4.92816 7.62083 4.92163 7.65182 4.91821 7.68342C4.90664 7.7925 4.90002 7.90277 4.90002 8.01482C4.90002 9.72726 6.28784 11.1149 7.99998 11.1149C9.71202 11.1149 11.1 9.72726 11.1 8.01482C11.1 7.90277 11.0933 7.7925 11.0816 7.68342C11.0783 7.65182 11.0718 7.62083 11.0675 7.58984C11.0567 7.51235 11.0454 7.43546 11.0291 7.35976C11.0218 7.32579 11.0118 7.29301 11.0034 7.25963C10.9854 7.18811 10.9666 7.11717 10.9439 7.04744C10.933 7.01406 10.9202 6.98246 10.9083 6.95029C10.8833 6.88234 10.8572 6.81438 10.8278 6.74941C10.8229 6.7381 10.8193 6.72618 10.8142 6.71485H10.8113C10.3195 5.65328 9.24717 4.91478 7.99998 4.91478ZM14.1999 2.61523C14.1999 2.17298 13.8419 1.81534 13.4 1.81534H11.8C11.3581 1.81534 10.9999 2.17298 10.9999 2.61523V4.21502C10.9999 4.65669 11.3581 5.01491 11.8 5.01491H13.4C13.8419 5.01491 14.1999 4.65669 14.1999 4.21502V2.61523ZM14.1999 6.71485H12.7252C12.8389 7.1291 12.9 7.5648 12.9 8.01482C12.9 10.7209 10.7062 12.9149 7.99998 12.9149C5.29381 12.9149 3.09997 10.7209 3.09997 8.01482C3.09997 7.5648 3.16096 7.1291 3.27472 6.71485H1.79992V13.415C1.79992 13.8567 2.15811 14.2149 2.59997 14.2149H13.4C13.8419 14.2149 14.1999 13.8567 14.1999 13.415V6.71485Z" fill="#95E1D3"/>
</svg>
