<svg width="16" height="16" viewBox="0 0 16 16" fill="none" xmlns="http://www.w3.org/2000/svg">
<path fill-rule="evenodd" clip-rule="evenodd" d="M15.8375 6.4043C15.7326 5.89051 15.5752 5.38387 15.371 4.90048C15.1706 4.42542 14.9222 3.96886 14.6333 3.54149C14.3472 3.1177 14.0187 2.71955 13.657 2.35834C13.2952 1.99595 12.8969 1.66752 12.4734 1.38142C12.0462 1.09174 11.5884 0.844384 11.1144 0.64352C10.6311 0.439664 10.1252 0.281712 9.61085 0.177408C9.08397 0.068928 8.54198 0.014688 8.00034 0.014688C7.45787 0.014688 6.91589 0.068928 6.38866 0.177408C5.87482 0.281712 5.36875 0.439664 4.88547 0.64352C4.41146 0.844384 3.95381 1.09174 3.52614 1.38142C3.10272 1.66752 2.70446 1.99595 2.34259 2.35834C1.98096 2.71955 1.65264 3.1177 1.36653 3.54149C1.07768 3.96886 0.829232 4.42542 0.628848 4.90048C0.424448 5.38387 0.267328 5.89051 0.162048 6.4043C0.054352 6.93002 -0.000352 7.47301 -0.000352 8.01422C-0.000352 8.55722 0.054352 9.09963 0.162048 9.62594C0.267328 10.1403 0.424448 10.6464 0.628848 11.1292C0.829232 11.6036 1.07768 12.062 1.36653 12.4888C1.65264 12.9125 1.98096 13.3101 2.34259 13.6725C2.70446 14.0343 3.10272 14.3621 3.52614 14.6482C3.95381 14.9373 4.41146 15.1859 4.88547 15.3861C5.36875 15.5906 5.87482 15.7467 6.38866 15.8522C6.91589 15.9613 7.45787 16.0156 8.00034 16.0156C8.54198 16.0156 9.08397 15.9613 9.61085 15.8522C10.1252 15.7467 10.6311 15.5906 11.1144 15.3861C11.5884 15.1859 12.0462 14.9373 12.4734 14.6482C12.8969 14.3621 13.2952 14.0343 13.657 13.6725C14.0187 13.3101 14.3472 12.9125 14.6333 12.4888C14.9222 12.062 15.1706 11.6036 15.371 11.1292C15.5752 10.6464 15.7326 10.1403 15.8375 9.62594C15.9456 9.09963 16.0003 8.55722 16.0003 8.01422C16.0003 7.47301 15.9456 6.93002 15.8375 6.4043ZM14.8302 7.94686C14.7313 7.92541 12.419 7.42771 10.0714 7.72275C10.0233 7.60594 9.97466 7.48851 9.92408 7.3699C9.78182 7.03611 9.62894 6.7047 9.46998 6.37926C12.168 5.27778 13.2636 3.69349 13.2765 3.67501C14.2348 4.8385 14.8145 6.32563 14.8302 7.94686ZM12.5126 2.88763C12.4958 2.91386 11.5227 4.39502 8.94366 5.36122C7.7759 3.21546 6.49269 1.51016 6.38992 1.37546C6.90638 1.25029 7.44494 1.18234 8.00034 1.18234C9.72998 1.18234 11.3088 1.82726 12.5126 2.88763ZM6.36371 1.38083C6.36336 1.38142 6.36245 1.38202 6.36245 1.38202C6.36245 1.38202 6.35456 1.3844 6.34197 1.38678C6.34894 1.3844 6.3565 1.38322 6.36371 1.38083ZM5.08494 1.8356C5.1757 1.9572 6.43923 3.67083 7.62198 5.7725C4.34131 6.64392 1.49424 6.60994 1.31389 6.60637C1.75781 4.4904 3.17939 2.73563 5.08494 1.8356ZM1.16774 8.01422C1.16774 7.9415 1.17094 7.86998 1.17347 7.79846C1.29386 7.80144 4.66998 7.87773 8.18766 6.82571C8.38371 7.20837 8.5707 7.59758 8.74202 7.98621C8.65162 8.01184 8.56224 8.03926 8.47274 8.06846C4.78568 9.25997 2.9156 12.5776 2.9156 12.5776C2.9156 12.5776 2.91778 12.5793 2.91813 12.5811C1.83024 11.37 1.16774 9.76958 1.16774 8.01422ZM8.00034 14.8473C6.34632 14.8473 4.82986 14.2596 3.6479 13.2815C3.73798 13.3542 3.8008 13.4013 3.8008 13.4013C3.8008 13.4013 5.11058 10.5444 9.1627 9.13301C9.17758 9.12763 9.1928 9.12347 9.2079 9.1187C10.1693 11.6167 10.5663 13.7088 10.6675 14.3067C9.84786 14.6548 8.9463 14.8473 8.00034 14.8473ZM11.8179 13.682C11.7484 13.269 11.3844 11.2645 10.4879 8.8016C12.6937 8.44874 14.6048 9.05314 14.7458 9.09963C14.4417 11.0034 13.352 12.6461 11.8179 13.682Z" fill="#95E1D3"/>
</svg>
