<svg width="16" height="15" viewBox="0 0 16 15" fill="none" xmlns="http://www.w3.org/2000/svg">
<path fill-rule="evenodd" clip-rule="evenodd" d="M13.4999 3.7169V6.15651H12.4999V3.7169H9.99995V2.71911H12.4999V0.279496H13.4999V2.71911H15.9999V3.7169H13.4999ZM6.58538 1.24628C7.47264 1.73683 7.99266 2.53434 7.99266 3.57683C7.99266 4.45301 7.45158 5.14324 6.75384 5.67909C6.07314 6.20122 5.94382 6.42057 5.94382 6.86462C5.94382 7.24311 6.67326 7.88862 7.05459 8.15387C8.16936 8.92814 8.49894 9.64697 8.49894 10.8468C8.49894 12.3441 7.05459 14.016 4.3832 14.016C2.03944 14.016 0 12.8954 0 11.3981C0 9.87823 1.86618 8.41135 4.20936 8.41135C4.46478 8.41135 4.6987 8.40063 4.94086 8.40063C4.62008 8.09427 4.36661 7.71338 4.36661 7.24966C4.36661 6.97549 4.45598 6.69952 4.5805 6.46467C4.45312 6.47361 4.32323 6.45275 4.18944 6.45275C2.26454 6.45275 0.975024 5.06157 0.975024 3.39563C0.975024 1.76484 2.75584 0.263396 4.64789 0.263396C5.70258 0.263396 8.86768 0.263396 8.86768 0.263396L7.92331 1.24628H6.58538ZM4.65568 8.79879C3.03611 8.7821 1.58488 9.76916 1.58488 10.9547C1.58488 12.1641 2.75482 13.0486 4.3745 13.0486C6.6513 13.0486 7.4453 12.2261 7.4453 11.0167C7.4453 10.8707 7.42675 10.7276 7.39344 10.5887C7.21538 9.90445 6.58493 9.5653 5.70544 8.96508C5.3857 8.86316 5.03368 8.80355 4.65568 8.79879ZM6.47552 3.5959C6.28749 2.194 5.20739 1.06806 4.1201 1.03708C3.03314 1.00548 2.30414 2.07777 2.49218 3.48026C2.67963 4.88277 3.7128 6.04565 4.80022 6.07725C5.88661 6.10883 6.66298 4.99839 6.47552 3.5959Z" fill="#95E1D3"/>
</svg>
