<svg width="9" height="16" viewBox="0 0 9 16" fill="none" xmlns="http://www.w3.org/2000/svg">
<path fill-rule="evenodd" clip-rule="evenodd" d="M7.99329 0.014688C7.99329 0.93736 7.99329 2.59021 7.99329 2.59021C7.99329 2.59021 6.09482 2.40125 5.61932 3.12843C5.35943 3.52659 5.5137 4.69067 5.4907 5.52693C6.31947 5.52693 7.1803 5.52693 8.00897 5.52693C7.79599 6.50504 7.64355 7.16725 7.487 8.01363C6.7698 8.01363 5.47662 8.01363 5.47662 8.01363V16.0161C5.47662 16.0161 3.10357 16.0161 1.988 16.0161C1.98869 13.5491 1.98742 10.6708 1.988 8.04522C1.44612 8.04522 1.04535 8.04522 0.503584 8.04522C0.503584 7.12194 0.503584 6.45019 0.503584 5.52693C1.02933 5.52693 1.44555 5.52693 1.97163 5.52693C2.04694 3.68573 2.0752 1.86184 2.9897 0.9332C4.01761 -0.111088 4.99791 0.014688 7.99329 0.014688Z" fill="#95E1D3"/>
</svg>
