<svg width="13" height="16" viewBox="0 0 13 16" fill="none" xmlns="http://www.w3.org/2000/svg">
<path fill-rule="evenodd" clip-rule="evenodd" d="M5.84424 10.424C5.71344 10.945 5.58195 11.4904 5.44553 12.0244C5.31096 12.5501 5.19273 13.0842 4.99704 13.567C4.6726 14.3681 4.2605 15.1424 3.71977 15.7682C3.36064 16.1854 3.4371 16.0185 3.32883 15.9965C3.24632 15.9792 3.23912 15.8987 3.22297 15.7813C3.13498 15.1447 3.19494 14.4092 3.22767 13.694C3.26486 12.8792 3.43629 12.2015 3.59525 11.5243C3.89806 10.2345 4.18679 8.97029 4.49236 7.67269C4.51273 7.58566 4.56743 7.44322 4.54854 7.39434C4.41007 7.03373 4.32012 6.70947 4.28064 6.33158C4.23509 5.89646 4.26999 5.49056 4.36773 5.11685C4.5403 4.45582 4.93822 3.86931 5.55151 3.65594C5.94118 3.52003 6.3733 3.58142 6.63549 3.73819C6.90569 3.89912 7.09097 4.15483 7.17748 4.51603C7.26972 4.90107 7.20174 5.36062 7.12759 5.69859C6.96062 6.45973 6.74146 7.03194 6.54199 7.76686C6.44311 8.13165 6.33142 8.50597 6.42366 8.89936C6.50858 9.26056 6.6966 9.50971 6.9533 9.69627C7.21913 9.88939 7.53409 9.99608 7.96873 9.98118C8.73594 9.95376 9.26935 9.46381 9.62594 9.00069C10.196 8.2604 10.5415 7.26082 10.6725 6.07171C10.7146 5.68904 10.7456 5.24797 10.716 4.81286C10.6615 4.01058 10.4104 3.36566 10.0121 2.86498C9.63304 2.38874 9.09563 2.00906 8.44217 1.79627C7.79398 1.58408 6.89676 1.51434 6.09968 1.65083C4.65154 1.89878 3.62993 2.72194 3.02831 3.858C2.71314 4.45344 2.50497 5.13771 2.50497 5.98946C2.50497 6.6463 2.66713 7.15533 2.92874 7.5517C3.01172 7.67746 3.13383 7.78117 3.2153 7.92541C3.33066 8.12867 3.19745 8.43266 3.14046 8.65259C3.0718 8.91843 3.06448 9.2856 2.75423 9.29155C2.62582 9.29394 2.46446 9.19976 2.35551 9.13957C1.54024 8.68894 1.04471 7.86878 0.841685 6.80603C0.718211 6.15992 0.718549 5.40592 0.841685 4.78126C0.960596 4.17747 1.18216 3.62077 1.42728 3.16837C1.93621 2.22899 2.68156 1.47858 3.58908 0.942128C4.28671 0.529664 5.07372 0.239984 6.03113 0.10112C6.34893 0.054624 6.67761 0.035552 7.03421 0.018256C8.07664 -0.030608 9.02456 0.206016 9.73799 0.524896C10.4912 0.861664 11.0922 1.30989 11.6006 1.86541C12.1241 2.43762 12.5054 3.1028 12.7471 3.93429C12.8729 4.36642 12.9955 4.82955 12.9955 5.3636C12.9955 5.89946 12.8822 6.37152 12.8031 6.84358C12.5069 8.61146 11.6662 10.0563 10.4046 10.8794C10.0987 11.0791 9.72849 11.2627 9.30814 11.3855C8.89123 11.5065 8.41573 11.5977 7.90635 11.5619C7.41162 11.5279 7.00719 11.3938 6.66674 11.2019C6.32902 11.0112 6.04533 10.7775 5.84424 10.424Z" fill="#95E1D3"/>
</svg>
