<svg width="10" height="16" viewBox="0 0 10 16" fill="none" xmlns="http://www.w3.org/2000/svg">
<path fill-rule="evenodd" clip-rule="evenodd" d="M10.009 15.1453C9.32871 15.466 8.71222 15.6931 8.16039 15.823C7.60809 15.953 7.01163 16.0179 6.37053 16.0179C5.64211 16.0179 5.21273 15.9256 4.65334 15.742C4.09407 15.5566 3.61651 15.292 3.22215 14.9516C2.82584 14.6089 2.55301 14.2435 2.39943 13.8596C2.24699 13.474 2.17066 12.9161 2.17066 12.183V6.56882H0.00716V4.30205C0.63269 4.09819 1.35802 3.80494 1.80296 3.42347C2.251 3.04141 2.60817 2.58365 2.87802 2.04781C3.14845 1.51434 3.33464 0.834848 3.43592 0.008128H5.70139V3.71197H9.38342V6.56882H5.70139V10.6738C5.70139 11.603 5.68926 12.1383 5.78711 12.4005C5.88438 12.6628 6.12826 12.9346 6.3941 13.092C6.7467 13.3041 7.14861 13.4108 7.6026 13.4108C8.40929 13.4108 9.21084 13.1468 10.009 12.6205V15.1453Z" fill="#95E1D3"/>
</svg>
