<svg width="16" height="14" viewBox="0 0 16 14" fill="none" xmlns="http://www.w3.org/2000/svg">
<path fill-rule="evenodd" clip-rule="evenodd" d="M10.8829 0.515536C12.1543 0.493472 12.831 0.956606 13.4775 1.5455C14.0261 1.49841 14.7392 1.19204 15.1592 0.978656C15.2952 0.904148 15.4314 0.829654 15.5675 0.755146C15.3276 1.40364 15.0024 1.91087 14.5024 2.29592C14.3915 2.38175 14.2813 2.49739 14.1421 2.55163C14.1421 2.55461 14.1421 2.55699 14.1421 2.55937C14.8544 2.55223 15.442 2.23096 16 2.05691C16 2.05929 16 2.06168 16 2.06465C15.7069 2.53077 15.3101 3.00343 14.8868 3.34198C14.7161 3.47788 14.5451 3.61319 14.3743 3.74909C14.3837 4.50367 14.3632 5.22311 14.2223 5.8567C13.4024 9.54206 11.2303 12.0431 7.79182 13.1142C6.55699 13.4992 4.56173 13.6578 3.14712 13.3061C2.4456 13.132 1.81182 12.9354 1.21718 12.6755C0.886912 12.5306 0.580896 12.3751 0.288272 12.1963C0.192144 12.1378 0.096016 12.0794 0 12.0204C0.319056 12.03 0.692352 12.1182 1.04907 12.0604C1.37179 12.0085 1.68822 12.0222 1.98589 11.9566C2.7285 11.7939 3.38779 11.5787 3.95587 11.2462C4.23122 11.0852 4.64915 10.8963 4.84485 10.6638C4.476 10.6698 4.14173 10.5845 3.86787 10.488C2.80597 10.1131 2.18787 9.42344 1.78573 8.38811C2.10754 8.42328 3.0344 8.50732 3.25126 8.32433C2.84614 8.30169 2.45658 8.06744 2.17814 7.89279C1.32395 7.35874 0.62736 6.46169 0.632624 5.08243C0.744656 5.13548 0.856816 5.18913 0.96896 5.24217C1.18342 5.33278 1.40166 5.38105 1.65766 5.4341C1.7657 5.45616 1.98189 5.51993 2.10605 5.47344C2.10078 5.47344 2.09541 5.47344 2.09003 5.47344C1.92477 5.28151 1.65549 5.15337 1.48944 4.94714C0.941376 4.26525 0.427888 3.21741 0.752784 1.96869C0.835184 1.6522 0.965872 1.37264 1.10504 1.11455C1.11042 1.11695 1.11579 1.11992 1.12106 1.1229C1.1848 1.25581 1.32717 1.35416 1.41734 1.46563C1.69726 1.81252 2.04253 2.12485 2.39432 2.39963C3.59309 3.33721 4.67261 3.91359 6.4064 4.34036C6.84619 4.44825 7.35454 4.5305 7.87982 4.53169C7.7323 4.10194 7.77968 3.40635 7.89584 2.99092C8.18802 1.94485 8.8227 1.19085 9.75379 0.787332C9.97638 0.690774 10.2232 0.620438 10.4824 0.563808C10.6159 0.547722 10.7494 0.531622 10.8829 0.515536Z" fill="#95E1D3"/>
</svg>
